<?xml version="1.0" encoding="UTF-8"?>
<svg id="Layer_2" data-name="Layer 2" xmlns="http://www.w3.org/2000/svg" viewBox="0 0 469.18 131.38">
  <g id="Layer_1-2" data-name="Layer 1">
    <g>
      <text transform="translate(139.27 101.38)" style="fill: #721011; font-family: CopperplateGothic-Bold, &apos;Copperplate Gothic Bold&apos;; font-size: 120px; font-weight: 700; letter-spacing: .07em;"><tspan x="0" y="0">BRM</tspan></text>
      <g>
        <circle cx="60.27" cy="60.27" r="60.27" style="fill: #721011; stroke-width: 0px;"/>
        <path d="M102.54,90.45c-.77-.18-1.48-.37-2.11-.56-.64-.18-1.24-.4-1.82-.65-.57-.25-1.12-.56-1.65-.95-.52-.39-1.06-.84-1.58-1.37-1.02-1.02-2.13-2.42-3.32-4.18-1.19-1.77-2.5-3.81-3.93-6.12-1.43-2.31-2.99-4.85-4.64-7.63-1.67-2.77-3.49-5.65-5.47-8.63,1.83-.56,3.48-1.21,4.96-1.95,2.6-1.29,4.7-2.84,6.26-4.68,2.45-2.87,3.68-6.61,3.68-11.23,0-5.11-1.79-9-5.36-11.67-3.58-2.67-8.94-4-16.09-4-.65,0-1.55.02-2.68.05s-2.54.07-4.23.13c-1.66.06-3.07.12-4.23.17-.58.02-1.11.04-1.59.06-.12,0-.24,0-.35,0-.33,0-.64,0-.93,0h-1.01c-.19,0-.39,0-.6,0-.21,0-.44,0-.68,0-.48-.02-1.01-.03-1.59-.06-1.16-.05-2.56-.1-4.23-.17-1.69-.06-3.1-.1-4.22-.13s-2.02-.05-2.68-.05c-7.15,0-12.5,1.33-16.08,4-3.57,2.67-5.36,6.56-5.36,11.67,0,4.63,1.22,8.37,3.68,11.23,1.56,1.83,3.65,3.39,6.26,4.68h-.16c-3.06.98-5.53,2.46-7.4,4.47-2.57,2.76-3.87,6.28-3.87,10.56,0,6.2,2.26,11,6.77,14.39,4.51,3.4,10.77,5.1,18.76,5.1,1.59,0,3.31-.05,5.16-.14,1.85-.09,3.93-.14,6.23-.14,3.76,0,7.61.05,11.55.14v-1.83c0-.21-.13-.4-.33-.47l-4.44-1.7c-.77-.25-1.18-.85-1.21-1.81-.03-1.21-.06-2.56-.07-4.05-.02-1.48-.02-3.16-.02-5.03v-16.14l3.26.1c.82.03,1.48.1,2,.18.52.1.98.27,1.37.52.39.25.75.59,1.08,1.02.33.43.73,1.02,1.21,1.76,1.6,2.49,3.13,5.02,4.57,7.61,1.44,2.6,2.83,5.03,4.18,7.33,1.33,2.29,2.62,4.35,3.87,6.17,1.24,1.81,2.5,3.2,3.8,4.16.6.47,1.2.84,1.81,1.14.62.29,1.3.53,2.06.71.75.19,1.61.31,2.58.37.96.06,2.08.1,3.35.1,1.52,0,3.4-.14,5.63-.42l-.14-2.05ZM51.99,88.5c-.53.2-1.11.36-1.75.46-.46.1-.95.15-1.47.19-1.22.1-2.34.14-3.36.14-5.13,0-9.03-1.27-11.7-3.82-2.67-2.54-4-6.23-4-11.07s1.35-6.84,4.05-9.19c2.71-2.34,7.07-3.51,13.09-3.51,1.75,0,3.47.05,5.14.13v26.65ZM51.99,58.27c-1.89.09-3.64.13-5.26.13-5.37,0-9.3-1.14-11.79-3.41-2.5-2.28-3.75-5.86-3.75-10.73s1.2-8.15,3.58-10.33c2.39-2.17,6.13-3.26,11.21-3.26.87,0,1.8.03,2.79.1.99.06,2.06.15,3.2.28h0v27.22ZM67.18,58.4c-1.61,0-3.37-.05-5.26-.13v-27.21h0c1.15-.13,2.21-.22,3.21-.29.98-.06,1.92-.1,2.79-.1,5.09,0,8.82,1.09,11.21,3.26,2.39,2.18,3.58,5.61,3.58,10.33s-1.25,8.45-3.74,10.73c-2.5,2.28-6.43,3.41-11.8,3.41Z" style="fill: #fff; stroke-width: 0px;"/>
      </g>
    </g>
  </g>
</svg>